Coordinates
version=1
nRows=13
nColumns=63
inDegrees=yes

Units are S.I. units (second, meters, Newtons, ...)
If the header above contains a line with 'inDegrees', this indicates whether rotational values are in degrees (yes) or radians (no).

endheader
time	pelvis_tilt	pelvis_list	pelvis_rotation	pelvis_tx	pelvis_ty	pelvis_tz	hip_flexion_r	hip_adduction_r	hip_rotation_r	knee_angle_r	knee_angle_r_beta	ankle_angle_r	subtalar_angle_r	mtp_angle_r	hip_flexion_l	hip_adduction_l	hip_rotation_l	knee_angle_l	knee_angle_l_beta	ankle_angle_l	subtalar_angle_l	mtp_angle_l	L5_S1_Flex_Ext	L5_S1_Lat_Bending	L5_S1_axial_rotation	L4_L5_Flex_Ext	L4_L5_Lat_Bending	L4_L5_axial_rotation	L3_L4_Flex_Ext	L3_L4_Lat_Bending	L3_L4_axial_rotation	L2_L3_Flex_Ext	L2_L3_Lat_Bending	L2_L3_axial_rotation	L1_L2_Flex_Ext	L1_L2_Lat_Bending	L1_L2_axial_rotation	L1_T12_Flex_Ext	L1_T12_Lat_Bending	L1_T12_axial_rotation	Abs_r3	Abs_r2	Abs_r1	Abs_t1	Abs_t2	neck_flexion	neck_bending	neck_rotation	arm_flex_r	arm_add_r	arm_rot_r	elbow_flex_r	pro_sup_r	wrist_flex_r	wrist_dev_r	arm_flex_l	arm_add_l	arm_rot_l	elbow_flex_l	pro_sup_l	wrist_flex_l	wrist_dev_l
10.681818	8.500288	1.259872	95.300486	0.161998	1.114195	0.484905	2.347402	7.447319	-2.543288	7.881815	0.137564	14.251564	13.778320	0.000000	2.040864	-9.371540	-5.041833	8.627808	0.150584	13.318922	-0.291532	0.000000	-0.056432	1.830712	3.568372	-0.104801	2.434847	3.791395	-0.092713	4.451193	3.791395	-0.064497	4.451193	3.122325	-0.052403	3.733188	2.899302	-0.032245	2.835773	2.676279	-0.403091	20.709382	19.846212	0.000000	0.000000	1.670887	-0.920799	-27.923464	0.325041	-31.136475	50.282523	101.977814	84.027217	15.875595	8.091823	25.122696	21.189192	240.497361	0.049516	0.830644	-69.898228	-24.698186
10.704545	8.591523	1.039053	96.023535	0.161171	1.112907	0.484951	2.710762	7.487155	-3.239526	8.022928	0.140027	14.461475	13.662568	0.000000	2.529007	-9.442619	-4.290912	8.745816	0.152643	13.660832	-0.212073	0.000000	-0.034052	1.830420	3.389063	-0.063238	2.434458	3.600879	-0.055944	4.450482	3.600879	-0.038918	4.450482	2.965430	-0.031621	3.732592	2.753613	-0.019457	2.835320	2.541797	-0.243230	20.706072	18.848950	0.000000	0.000000	2.074402	-1.063723	-26.978018	0.079951	-31.381782	50.591296	101.392632	84.520919	15.446451	6.162156	24.703678	21.220650	239.622963	0.050689	0.833177	-69.895476	-24.691926
10.727273	8.717071	0.788997	96.689948	0.160137	1.111382	0.485096	3.142729	7.540933	-3.946774	8.247397	0.143944	14.729258	13.544813	0.000000	2.995917	-9.529598	-3.602901	8.774085	0.153137	14.111559	-0.037915	0.000000	-0.017726	1.823226	3.206529	-0.032919	2.424891	3.406937	-0.029122	4.432993	3.406937	-0.020259	4.432993	2.805713	-0.016461	3.717923	2.605305	-0.010129	2.824178	2.404897	-0.126616	20.624701	17.833751	0.000000	0.000000	2.648752	-1.170425	-26.127494	-0.978463	-32.265919	50.077177	100.918330	85.041571	15.698967	3.324101	24.148346	21.630421	238.922211	0.052202	0.840238	-69.892590	-24.684459
10.750000	8.860463	0.530350	97.264678	0.158979	1.109716	0.485399	3.615854	7.598183	-4.613416	8.543560	0.149113	15.028277	13.402538	0.000000	3.419147	-9.620916	-3.012480	8.729642	0.152361	14.640956	0.219501	0.000000	-0.007420	1.809436	3.042600	-0.013780	2.406551	3.232763	-0.012191	4.399464	3.232763	-0.008480	4.399464	2.662275	-0.006890	3.689803	2.472113	-0.004240	2.802817	2.281950	-0.053001	20.468707	16.922031	0.000000	0.000000	3.318949	-1.250562	-25.452021	-2.906274	-33.639029	48.521728	100.586186	85.181613	16.447785	0.005021	23.506630	22.378925	238.369292	0.053948	0.861047	-69.889651	-24.676534
10.772727	9.008914	0.290503	97.732908	0.157796	1.108019	0.485897	4.103151	7.655070	-5.198073	8.911254	0.155531	15.333271	13.204034	0.000000	3.777282	-9.712897	-2.558913	8.633914	0.150690	15.213455	0.578929	0.000000	-0.004388	1.790502	2.909917	-0.008149	2.381368	3.091786	-0.007209	4.353427	3.091786	-0.005015	4.353427	2.546177	-0.004075	3.651192	2.364307	-0.002507	2.773488	2.182437	-0.031343	20.254520	16.184083	0.000000	0.000000	4.031439	-1.288641	-24.986834	-5.552429	-35.437525	46.152373	100.465065	84.461948	16.960629	-3.399085	22.854503	23.397462	237.941145	0.055858	0.889457	-69.886693	-24.667764
10.795455	9.140669	0.091219	98.052251	0.156729	1.106398	0.486558	4.569459	7.700764	-5.630929	9.333314	0.162897	15.630771	12.948076	0.000000	4.038713	-9.794961	-2.334695	8.497441	0.148308	15.791319	1.087973	0.000000	-0.009668	1.767016	2.828130	-0.017954	2.350131	3.004888	-0.015883	4.296322	3.004888	-0.011049	4.296322	2.474614	-0.008977	3.603299	2.297856	-0.005524	2.737108	2.121097	-0.069054	19.988836	15.729210	0.000000	0.000000	4.731568	-1.319375	-24.802734	-8.739478	-37.433252	42.985742	100.491193	83.509103	17.600615	-7.072101	22.254151	24.589819	237.672713	0.057795	0.922331	-69.883877	-24.658395
10.818182	9.238580	-0.062014	98.222706	0.155873	1.104909	0.487280	4.987561	7.725624	-5.892216	9.777477	0.170649	15.913689	12.633174	0.000000	4.198908	-9.854124	-2.299140	8.336397	0.145498	16.334484	1.656822	0.000000	-0.021303	1.739893	2.798198	-0.039562	2.314057	2.973086	-0.034999	4.230375	2.973086	-0.024347	4.230375	2.448423	-0.019782	3.547989	2.273536	-0.012173	2.695094	2.098649	-0.152166	19.682015	15.562739	0.000000	0.000000	5.370462	-1.367833	-24.847842	-12.194957	-39.457948	39.339830	100.584566	82.612867	18.329625	-10.979104	21.735555	25.822440	237.593471	0.059670	0.959197	-69.881328	-24.649430
10.840909	9.300385	-0.172761	98.276405	0.155248	1.103574	0.487953	5.334661	7.731232	-5.988767	10.195987	0.177954	16.170565	12.273419	0.000000	4.270310	-9.891461	-2.426738	8.164845	0.142503	16.829357	2.267517	0.000000	-0.036352	1.710946	2.806665	-0.067509	2.275558	2.982081	-0.059723	4.159993	2.982081	-0.041547	4.159993	2.455832	-0.033756	3.488960	2.280415	-0.020772	2.650255	2.104999	-0.259659	19.354559	15.609828	0.000000	0.000000	5.923247	-1.458765	-25.044395	-15.629086	-41.314419	35.557430	100.615706	82.030230	19.322948	-14.780738	21.297038	26.979652	237.732271	0.061417	0.996500	-69.879079	-24.641283
10.863636	9.327399	-0.253693	98.264488	0.154793	1.102401	0.488503	5.609328	7.716085	-5.985023	10.557466	0.184263	16.409213	11.920206	0.000000	4.283961	-9.898166	-2.559526	7.998119	0.139594	17.255098	2.739109	0.000000	-0.051398	1.681107	2.832960	-0.095452	2.235873	3.010020	-0.084442	4.087444	3.010020	-0.058743	4.087444	2.478840	-0.047729	3.428114	2.301780	-0.029369	2.604035	2.124720	-0.367134	19.017020	15.756076	0.000000	0.000000	6.387899	-1.571160	-25.348350	-18.717623	-42.912652	32.240035	100.466764	81.566459	20.072107	-18.269120	20.921758	27.987201	238.161640	0.062975	1.030481	-69.877265	-24.634491
10.886364	9.336972	-0.318324	98.238801	0.154402	1.101442	0.488852	5.810348	7.693684	-5.914843	10.824924	0.188931	16.601427	11.587179	0.000000	4.260492	-9.893121	-2.730685	7.826790	0.136603	17.616500	3.210497	0.000000	-0.062538	1.654518	2.854059	-0.116139	2.200509	3.032437	-0.102744	4.022795	3.032437	-0.071475	4.022795	2.497301	-0.058073	3.373893	2.318923	-0.035734	2.562848	2.140544	-0.446702	18.716239	15.873418	0.000000	0.000000	6.760902	-1.719178	-25.632692	-21.226031	-44.106268	29.696548	100.090447	81.087233	20.603109	-20.888845	20.564001	28.787898	238.803288	0.064171	1.060833	-69.876312	-24.630724
10.909091	9.333671	-0.365552	98.242073	0.154017	1.100730	0.489016	5.937802	7.663732	-5.885420	10.992182	0.191850	16.758198	11.369566	0.000000	4.217498	-9.874001	-2.836107	7.659356	0.133681	17.900649	3.576496	0.000000	-0.069285	1.634435	2.861846	-0.128669	2.173798	3.040711	-0.113828	3.973964	3.040711	-0.079186	3.973964	2.504115	-0.064338	3.332939	2.325250	-0.039589	2.531739	2.146384	-0.494896	18.489051	15.916727	0.000000	0.000000	7.066945	-1.892399	-25.747984	-22.977910	-44.864880	28.180926	99.571570	80.642448	20.373905	-22.461343	20.219275	29.355002	239.678047	0.064944	1.084411	-69.876978	-24.631376
10.931818	9.341678	-0.388469	98.306487	0.153624	1.100248	0.489024	5.988523	7.656278	-5.875431	11.047952	0.192823	16.866335	11.192765	0.000000	4.161319	-9.863766	-2.807693	7.488259	0.130695	18.111496	3.808408	0.000000	-0.070944	1.624076	2.854720	-0.131751	2.160021	3.033140	-0.116555	3.948778	3.033140	-0.081082	3.948778	2.497880	-0.065879	3.311815	2.319460	-0.040538	2.515693	2.141040	-0.506749	18.371870	15.877094	0.000000	0.000000	7.343128	-2.063818	-25.691211	-23.990279	-45.227291	27.504843	99.040012	80.482026	19.537543	-22.915952	19.881664	29.685279	240.521107	0.065441	1.102640	-69.880483	-24.644535
10.954545	9.298522	-0.366920	98.471806	0.153287	1.099931	0.488982	5.950184	7.606528	-6.003323	11.029244	0.192497	16.998350	11.174869	0.000000	4.091685	-9.810234	-2.647753	7.349184	0.128267	18.279031	3.947363	0.000000	-0.074473	1.614656	2.844394	-0.138305	2.147492	3.022169	-0.122352	3.925874	3.022169	-0.085116	3.925874	2.488845	-0.069156	3.292606	2.311070	-0.042554	2.501102	2.133296	-0.531956	18.265309	15.819667	0.000000	0.000000	7.653963	-2.195263	-25.616416	-24.398771	-45.199588	27.312846	98.622310	80.699683	18.253594	-22.370944	19.613634	29.810918	241.312925	0.065669	1.103127	-69.891020	-24.652483
